<svg width="14" height="19" viewBox="0 0 14 19" fill="none" xmlns="http://www.w3.org/2000/svg">
<path d="M8.94531 3.01172C8.125 3.01172 7.39062 3.16016 6.74219 3.45703C6.10156 3.75391 5.55859 4.18359 5.11328 4.74609C4.66797 5.30078 4.32812 5.97656 4.09375 6.77344C3.85938 7.5625 3.74219 8.45312 3.74219 9.44531C3.74219 10.7734 3.92969 11.918 4.30469 12.8789C4.67969 13.832 5.25 14.5664 6.01562 15.082C6.78125 15.5898 7.75 15.8438 8.92188 15.8438C9.64844 15.8438 10.3555 15.7734 11.043 15.6328C11.7305 15.4922 12.4414 15.3008 13.1758 15.0586V17.4492C12.4805 17.7227 11.7773 17.9219 11.0664 18.0469C10.3555 18.1719 9.53516 18.2344 8.60547 18.2344C6.85547 18.2344 5.40234 17.8711 4.24609 17.1445C3.09766 16.418 2.23828 15.3945 1.66797 14.0742C1.10547 12.7539 0.824219 11.207 0.824219 9.43359C0.824219 8.13672 1.00391 6.94922 1.36328 5.87109C1.72266 4.79297 2.24609 3.86328 2.93359 3.08203C3.62109 2.29297 4.46875 1.6875 5.47656 1.26562C6.49219 0.835937 7.65234 0.621094 8.95703 0.621094C9.81641 0.621094 10.6602 0.71875 11.4883 0.914062C12.3242 1.10156 13.0977 1.37109 13.8086 1.72266L12.8242 4.04297C12.2305 3.76172 11.6094 3.51953 10.9609 3.31641C10.3125 3.11328 9.64062 3.01172 8.94531 3.01172Z" fill="white"/>
</svg>
