<svg width="12" height="19" viewBox="0 0 12 19" fill="none" xmlns="http://www.w3.org/2000/svg">
<path d="M11.8125 9.42188C11.8125 10.8047 11.7031 12.043 11.4844 13.1367C11.2734 14.2227 10.9375 15.1445 10.4766 15.9023C10.0156 16.6602 9.41406 17.2383 8.67188 17.6367C7.92969 18.0352 7.03125 18.2344 5.97656 18.2344C4.65625 18.2344 3.56641 17.8867 2.70703 17.1914C1.84766 16.4883 1.21094 15.4805 0.796875 14.168C0.382812 12.8477 0.175781 11.2656 0.175781 9.42188C0.175781 7.57812 0.363281 6 0.738281 4.6875C1.12109 3.36719 1.73828 2.35547 2.58984 1.65234C3.44141 0.949219 4.57031 0.597656 5.97656 0.597656C7.30469 0.597656 8.39844 0.949219 9.25781 1.65234C10.125 2.34766 10.7656 3.35547 11.1797 4.67578C11.6016 5.98828 11.8125 7.57031 11.8125 9.42188ZM2.95312 9.42188C2.95312 10.8672 3.04688 12.0742 3.23438 13.043C3.42969 14.0117 3.75 14.7383 4.19531 15.2227C4.64062 15.6992 5.23438 15.9375 5.97656 15.9375C6.71875 15.9375 7.3125 15.6992 7.75781 15.2227C8.20312 14.7461 8.52344 14.0234 8.71875 13.0547C8.92188 12.0859 9.02344 10.875 9.02344 9.42188C9.02344 7.98438 8.92578 6.78125 8.73047 5.8125C8.53516 4.84375 8.21484 4.11719 7.76953 3.63281C7.32422 3.14062 6.72656 2.89453 5.97656 2.89453C5.22656 2.89453 4.62891 3.14062 4.18359 3.63281C3.74609 4.11719 3.42969 4.84375 3.23438 5.8125C3.04688 6.78125 2.95312 7.98438 2.95312 9.42188Z" fill="#024873"/>
</svg>
