<svg width="12" height="19" viewBox="0 0 12 19" fill="none" xmlns="http://www.w3.org/2000/svg">
<path d="M11.1562 4.78125C11.1562 5.55469 11 6.22656 10.6875 6.79688C10.375 7.36719 9.94531 7.83594 9.39844 8.20312C8.85938 8.5625 8.23438 8.82031 7.52344 8.97656V9.05859C8.89062 9.23047 9.92188 9.66016 10.6172 10.3477C11.3203 11.0352 11.6719 11.9453 11.6719 13.0781C11.6719 14.0703 11.4336 14.957 10.957 15.7383C10.4805 16.5117 9.75 17.1211 8.76562 17.5664C7.78125 18.0117 6.51562 18.2344 4.96875 18.2344C4.03906 18.2344 3.17578 18.1602 2.37891 18.0117C1.58984 17.8633 0.839844 17.625 0.128906 17.2969V14.8477C0.855469 15.207 1.62891 15.4844 2.44922 15.6797C3.26953 15.875 4.04688 15.9727 4.78125 15.9727C6.21094 15.9727 7.23047 15.707 7.83984 15.1758C8.44922 14.6367 8.75391 13.8945 8.75391 12.9492C8.75391 12.3398 8.59375 11.8398 8.27344 11.4492C7.96094 11.0586 7.47266 10.7656 6.80859 10.5703C6.15234 10.375 5.30469 10.2773 4.26562 10.2773H2.75391V8.0625H4.27734C5.26953 8.0625 6.06641 7.94531 6.66797 7.71094C7.26953 7.46875 7.70312 7.13672 7.96875 6.71484C8.24219 6.29297 8.37891 5.80078 8.37891 5.23828C8.37891 4.50391 8.14062 3.93359 7.66406 3.52734C7.1875 3.11328 6.48047 2.90625 5.54297 2.90625C4.96484 2.90625 4.4375 2.97266 3.96094 3.10547C3.49219 3.23828 3.05859 3.40625 2.66016 3.60938C2.26172 3.8125 1.88281 4.03125 1.52344 4.26562L0.199219 2.35547C0.847656 1.87109 1.62109 1.46094 2.51953 1.125C3.41797 0.789062 4.46484 0.621094 5.66016 0.621094C7.41797 0.621094 8.77344 1 9.72656 1.75781C10.6797 2.50781 11.1562 3.51562 11.1562 4.78125Z" fill="#024873"/>
</svg>
