<svg width="12" height="19" viewBox="0 0 12 19" fill="none" xmlns="http://www.w3.org/2000/svg">
<path d="M11.7891 8.16797C11.7891 9.18359 11.7148 10.1797 11.5664 11.1562C11.4258 12.1328 11.1758 13.0469 10.8164 13.8984C10.4648 14.75 9.97656 15.5039 9.35156 16.1602C8.73438 16.8086 7.95312 17.3164 7.00781 17.6836C6.0625 18.0508 4.92188 18.2344 3.58594 18.2344C3.25 18.2344 2.85938 18.2148 2.41406 18.1758C1.97656 18.1445 1.61719 18.0977 1.33594 18.0352V15.7383C1.63281 15.8242 1.96484 15.8945 2.33203 15.9492C2.70703 15.9961 3.07812 16.0195 3.44531 16.0195C4.89062 16.0195 6.01562 15.75 6.82031 15.2109C7.63281 14.6719 8.20703 13.9297 8.54297 12.9844C8.88672 12.0391 9.08203 10.9648 9.12891 9.76172H8.98828C8.76172 10.1367 8.47656 10.4805 8.13281 10.793C7.78906 11.0977 7.36328 11.3438 6.85547 11.5312C6.34766 11.7109 5.73047 11.8008 5.00391 11.8008C4.01953 11.8008 3.16016 11.5938 2.42578 11.1797C1.69922 10.7656 1.13281 10.1641 0.726562 9.375C0.328125 8.57812 0.128906 7.62109 0.128906 6.50391C0.128906 5.29297 0.359375 4.25 0.820312 3.375C1.28125 2.5 1.93359 1.82812 2.77734 1.35938C3.62109 0.882812 4.61328 0.644531 5.75391 0.644531C6.61328 0.644531 7.40625 0.800781 8.13281 1.11328C8.86719 1.41797 9.50781 1.88672 10.0547 2.51953C10.6016 3.14453 11.0273 3.92969 11.332 4.875C11.6367 5.8125 11.7891 6.91016 11.7891 8.16797ZM5.78906 2.91797C4.92188 2.91797 4.21484 3.21094 3.66797 3.79688C3.12109 4.375 2.84766 5.26562 2.84766 6.46875C2.84766 7.44531 3.08203 8.21875 3.55078 8.78906C4.01953 9.35938 4.73828 9.64453 5.70703 9.64453C6.37891 9.64453 6.95703 9.50781 7.44141 9.23438C7.93359 8.95312 8.3125 8.59766 8.57812 8.16797C8.85156 7.73828 8.98828 7.30078 8.98828 6.85547C8.98828 6.39453 8.92188 5.93359 8.78906 5.47266C8.66406 5.01172 8.46875 4.58984 8.20312 4.20703C7.9375 3.82422 7.60156 3.51562 7.19531 3.28125C6.79688 3.03906 6.32812 2.91797 5.78906 2.91797Z" fill="#024873"/>
</svg>
