<svg width="12" height="19" viewBox="0 0 12 19" fill="none" xmlns="http://www.w3.org/2000/svg">
<path d="M6.03516 7.28906C7.13672 7.28906 8.10547 7.48828 8.94141 7.88672C9.78516 8.27734 10.4414 8.85547 10.9102 9.62109C11.3789 10.3789 11.6133 11.3086 11.6133 12.4102C11.6133 13.6133 11.3594 14.6523 10.8516 15.5273C10.3438 16.3945 9.59766 17.0625 8.61328 17.5312C7.62891 18 6.42969 18.2344 5.01562 18.2344C4.11719 18.2344 3.27734 18.1562 2.49609 18C1.72266 17.8438 1.05469 17.6094 0.492188 17.2969V14.8125C1.07812 15.1406 1.78125 15.4102 2.60156 15.6211C3.42188 15.8242 4.20703 15.9258 4.95703 15.9258C5.75391 15.9258 6.4375 15.8086 7.00781 15.5742C7.57812 15.3398 8.01562 14.9805 8.32031 14.4961C8.63281 14.0117 8.78906 13.3984 8.78906 12.6562C8.78906 11.6719 8.47266 10.9141 7.83984 10.3828C7.21484 9.84375 6.23438 9.57422 4.89844 9.57422C4.42969 9.57422 3.92969 9.61719 3.39844 9.70312C2.875 9.78125 2.4375 9.86719 2.08594 9.96094L0.878906 9.24609L1.52344 0.867188H10.4297V3.29297H3.94922L3.57422 7.55859C3.85547 7.49609 4.19141 7.4375 4.58203 7.38281C4.97266 7.32031 5.45703 7.28906 6.03516 7.28906Z" fill="#024873"/>
</svg>
