<svg width="12" height="19" viewBox="0 0 12 19" fill="none" xmlns="http://www.w3.org/2000/svg">
<path d="M5.98828 0.632812C6.98047 0.632812 7.875 0.789062 8.67188 1.10156C9.46875 1.40625 10.1016 1.86328 10.5703 2.47266C11.0391 3.08203 11.2734 3.83594 11.2734 4.73438C11.2734 5.42969 11.1289 6.03516 10.8398 6.55078C10.5586 7.06641 10.1758 7.51953 9.69141 7.91016C9.20703 8.29297 8.66406 8.63281 8.0625 8.92969C8.73438 9.25781 9.35156 9.63672 9.91406 10.0664C10.4844 10.4883 10.9414 10.9844 11.2852 11.5547C11.6367 12.125 11.8125 12.793 11.8125 13.5586C11.8125 14.5195 11.5664 15.3516 11.0742 16.0547C10.5898 16.75 9.91406 17.2891 9.04688 17.6719C8.17969 18.0469 7.16797 18.2344 6.01172 18.2344C4.76953 18.2344 3.71094 18.0508 2.83594 17.6836C1.96094 17.3164 1.29688 16.793 0.84375 16.1133C0.390625 15.4258 0.164062 14.6055 0.164062 13.6523C0.164062 12.8633 0.320312 12.1797 0.632812 11.6016C0.945312 11.0234 1.36328 10.5234 1.88672 10.1016C2.41797 9.67969 3 9.32422 3.63281 9.03516C3.09375 8.71484 2.60156 8.35547 2.15625 7.95703C1.71094 7.55078 1.35547 7.08594 1.08984 6.5625C0.832031 6.03125 0.703125 5.41797 0.703125 4.72266C0.703125 3.83203 0.941406 3.08594 1.41797 2.48438C1.89453 1.875 2.53125 1.41406 3.32812 1.10156C4.13281 0.789062 5.01953 0.632812 5.98828 0.632812ZM2.78906 13.5469C2.78906 14.2969 3.05469 14.9141 3.58594 15.3984C4.11719 15.8828 4.91016 16.125 5.96484 16.125C7.01172 16.125 7.80859 15.8867 8.35547 15.4102C8.90234 14.9336 9.17578 14.3047 9.17578 13.5234C9.17578 13.0234 9.03516 12.582 8.75391 12.1992C8.48047 11.8164 8.10938 11.4766 7.64062 11.1797C7.17969 10.875 6.66797 10.5938 6.10547 10.3359L5.73047 10.1836C5.12109 10.4414 4.59766 10.7344 4.16016 11.0625C3.72266 11.3828 3.38281 11.7461 3.14062 12.1523C2.90625 12.5586 2.78906 13.0234 2.78906 13.5469ZM5.96484 2.75391C5.20703 2.75391 4.58203 2.94141 4.08984 3.31641C3.60547 3.68359 3.36328 4.21484 3.36328 4.91016C3.36328 5.40234 3.48047 5.82422 3.71484 6.17578C3.95703 6.52734 4.28125 6.83203 4.6875 7.08984C5.09375 7.33984 5.54297 7.57422 6.03516 7.79297C6.51172 7.58203 6.94141 7.35156 7.32422 7.10156C7.71484 6.84375 8.02344 6.53906 8.25 6.1875C8.48438 5.82812 8.60156 5.39844 8.60156 4.89844C8.60156 4.21094 8.35547 3.68359 7.86328 3.31641C7.37891 2.94141 6.74609 2.75391 5.96484 2.75391Z" fill="#024873"/>
</svg>
