<svg width="12" height="19" viewBox="0 0 12 19" fill="none" xmlns="http://www.w3.org/2000/svg">
<path d="M0.234375 10.6992C0.234375 9.69141 0.304688 8.69922 0.445312 7.72266C0.59375 6.74609 0.84375 5.83203 1.19531 4.98047C1.54688 4.12891 2.03125 3.37891 2.64844 2.73047C3.27344 2.08203 4.05859 1.57422 5.00391 1.20703C5.94922 0.832031 7.08594 0.644531 8.41406 0.644531C8.75781 0.644531 9.14453 0.660156 9.57422 0.691406C10.0039 0.722656 10.3594 0.773438 10.6406 0.84375V3.12891C10.3359 3.04297 10 2.97656 9.63281 2.92969C9.27344 2.88281 8.91406 2.85938 8.55469 2.85938C7.11719 2.85938 5.99609 3.13281 5.19141 3.67969C4.38672 4.21875 3.8125 4.96094 3.46875 5.90625C3.125 6.84375 2.92578 7.91797 2.87109 9.12891H3.01172C3.24609 8.73828 3.53906 8.39062 3.89062 8.08594C4.24219 7.78125 4.67188 7.53906 5.17969 7.35938C5.6875 7.17188 6.27734 7.07812 6.94922 7.07812C7.94922 7.07812 8.82031 7.28906 9.5625 7.71094C10.3047 8.125 10.875 8.72656 11.2734 9.51562C11.6797 10.3047 11.8828 11.2617 11.8828 12.3867C11.8828 13.5977 11.6523 14.6406 11.1914 15.5156C10.7383 16.3906 10.0898 17.0625 9.24609 17.5312C8.41016 18 7.41406 18.2344 6.25781 18.2344C5.40625 18.2344 4.61328 18.0781 3.87891 17.7656C3.15234 17.4531 2.51562 16.9844 1.96875 16.3594C1.42188 15.7344 0.996094 14.9531 0.691406 14.0156C0.386719 13.0703 0.234375 11.9648 0.234375 10.6992ZM6.21094 15.9609C7.10156 15.9609 7.81641 15.6719 8.35547 15.0938C8.90234 14.5078 9.17578 13.6133 9.17578 12.4102C9.17578 11.4336 8.93359 10.6602 8.44922 10.0898C7.97266 9.51953 7.25391 9.23438 6.29297 9.23438C5.63672 9.23438 5.0625 9.375 4.57031 9.65625C4.07812 9.9375 3.69531 10.293 3.42188 10.7227C3.15625 11.1523 3.02344 11.5898 3.02344 12.0352C3.02344 12.4883 3.08984 12.9453 3.22266 13.4062C3.35547 13.8672 3.55469 14.293 3.82031 14.6836C4.08594 15.0664 4.41797 15.375 4.81641 15.6094C5.21484 15.8438 5.67969 15.9609 6.21094 15.9609Z" fill="#024873"/>
</svg>
