<svg width="12" height="18" viewBox="0 0 12 18" fill="none" xmlns="http://www.w3.org/2000/svg">
<path d="M11.8125 18H0.210938V15.9258L4.65234 11.4258C5.51172 10.5508 6.21875 9.79688 6.77344 9.16406C7.32812 8.52344 7.73828 7.91797 8.00391 7.34766C8.27734 6.77734 8.41406 6.15625 8.41406 5.48438C8.41406 4.65625 8.17578 4.03125 7.69922 3.60938C7.22266 3.17969 6.59375 2.96484 5.8125 2.96484C5.07031 2.96484 4.38281 3.11328 3.75 3.41016C3.125 3.69922 2.47656 4.11328 1.80469 4.65234L0.292969 2.83594C0.769531 2.42969 1.27734 2.05859 1.81641 1.72266C2.36328 1.38672 2.97266 1.12109 3.64453 0.925781C4.31641 0.722656 5.08203 0.621094 5.94141 0.621094C7.02734 0.621094 7.96484 0.816406 8.75391 1.20703C9.54297 1.58984 10.1484 2.125 10.5703 2.8125C11 3.5 11.2148 4.30078 11.2148 5.21484C11.2148 6.13672 11.0312 6.98828 10.6641 7.76953C10.2969 8.55078 9.77344 9.32422 9.09375 10.0898C8.41406 10.8477 7.60547 11.6719 6.66797 12.5625L3.70312 15.457V15.5859H11.8125V18Z" fill="#024873"/>
</svg>
